<mxfile host="app.diagrams.net" modified="2023-04-15T22:54:36.899Z" agent="Mozilla/5.0 (Macintosh; Intel Mac OS X 10_15_7) AppleWebKit/537.36 (KHTML, like Gecko) Chrome/112.0.0.0 Safari/537.36" etag="Gm_WGh9_4bjF-VWIUFW9" version="21.1.8" type="device">
  <diagram id="3B03XYDXIa48sdE2aLpk" name="Page-1">
    <mxGraphModel dx="1079" dy="714" grid="1" gridSize="10" guides="1" tooltips="1" connect="1" arrows="1" fold="1" page="1" pageScale="1" pageWidth="1100" pageHeight="850" math="0" shadow="0">
      <root>
        <mxCell id="0" />
        <mxCell id="1" parent="0" />
        <mxCell id="fTSGLELFs4bgMWzawuB0-1" value="" style="group" parent="1" vertex="1" connectable="0">
          <mxGeometry x="320" y="240" width="160" height="165.86" as="geometry" />
        </mxCell>
        <mxCell id="fTSGLELFs4bgMWzawuB0-2" value="&lt;font face=&quot;Times New Roman&quot; style=&quot;font-size: 16px;&quot;&gt;&lt;b&gt;X&lt;sub&gt;2&lt;/sub&gt;&lt;/b&gt;&lt;/font&gt;" style="ellipse;whiteSpace=wrap;html=1;aspect=fixed;" parent="fTSGLELFs4bgMWzawuB0-1" vertex="1">
          <mxGeometry width="45.71428571428571" height="45.71428571428571" as="geometry" />
        </mxCell>
        <mxCell id="fTSGLELFs4bgMWzawuB0-3" value="&lt;font face=&quot;Times New Roman&quot; style=&quot;font-size: 16px;&quot;&gt;&lt;b&gt;X&lt;sub&gt;3&lt;/sub&gt;&lt;/b&gt;&lt;/font&gt;" style="ellipse;whiteSpace=wrap;html=1;aspect=fixed;" parent="fTSGLELFs4bgMWzawuB0-1" vertex="1">
          <mxGeometry y="109.87512624707101" width="45.71428571428571" height="45.71428571428571" as="geometry" />
        </mxCell>
        <mxCell id="fTSGLELFs4bgMWzawuB0-4" value="" style="endArrow=classic;html=1;rounded=0;entryX=0.5;entryY=0;entryDx=0;entryDy=0;exitX=0.5;exitY=1;exitDx=0;exitDy=0;" parent="fTSGLELFs4bgMWzawuB0-1" source="fTSGLELFs4bgMWzawuB0-2" target="fTSGLELFs4bgMWzawuB0-3" edge="1">
          <mxGeometry width="50" height="50" relative="1" as="geometry">
            <mxPoint x="91.42857142857142" y="48.83338944314267" as="sourcePoint" />
            <mxPoint x="148.57142857142856" y="-12.208347360785668" as="targetPoint" />
          </mxGeometry>
        </mxCell>
        <mxCell id="fTSGLELFs4bgMWzawuB0-5" value="&lt;font face=&quot;Times New Roman&quot; style=&quot;font-size: 16px;&quot;&gt;&lt;b&gt;X&lt;sub&gt;5&lt;/sub&gt;&lt;/b&gt;&lt;/font&gt;" style="ellipse;whiteSpace=wrap;html=1;aspect=fixed;" parent="fTSGLELFs4bgMWzawuB0-1" vertex="1">
          <mxGeometry x="114.28571428571428" width="45.71428571428571" height="45.71428571428571" as="geometry" />
        </mxCell>
        <mxCell id="fTSGLELFs4bgMWzawuB0-6" value="&lt;font face=&quot;Times New Roman&quot; style=&quot;font-size: 16px;&quot;&gt;&lt;b&gt;X&lt;sub&gt;4&lt;/sub&gt;&lt;/b&gt;&lt;/font&gt;" style="ellipse;whiteSpace=wrap;html=1;aspect=fixed;" parent="fTSGLELFs4bgMWzawuB0-1" vertex="1">
          <mxGeometry x="114.28571428571428" y="109.87512624707101" width="45.71428571428571" height="45.71428571428571" as="geometry" />
        </mxCell>
        <mxCell id="fTSGLELFs4bgMWzawuB0-7" value="" style="endArrow=classic;html=1;rounded=0;entryX=0.5;entryY=0;entryDx=0;entryDy=0;exitX=0.5;exitY=1;exitDx=0;exitDy=0;" parent="fTSGLELFs4bgMWzawuB0-1" source="fTSGLELFs4bgMWzawuB0-5" target="fTSGLELFs4bgMWzawuB0-6" edge="1">
          <mxGeometry width="50" height="50" relative="1" as="geometry">
            <mxPoint x="205.7142857142857" y="48.83338944314267" as="sourcePoint" />
            <mxPoint x="262.85714285714283" y="-12.208347360785668" as="targetPoint" />
          </mxGeometry>
        </mxCell>
        <mxCell id="fTSGLELFs4bgMWzawuB0-24" value="" style="endArrow=classic;html=1;rounded=0;fontSize=16;exitX=0.963;exitY=0.722;exitDx=0;exitDy=0;entryX=0;entryY=0;entryDx=0;entryDy=0;exitPerimeter=0;" parent="fTSGLELFs4bgMWzawuB0-1" source="fTSGLELFs4bgMWzawuB0-2" target="fTSGLELFs4bgMWzawuB0-6" edge="1">
          <mxGeometry width="50" height="50" relative="1" as="geometry">
            <mxPoint x="240" y="130" as="sourcePoint" />
            <mxPoint x="290" y="80" as="targetPoint" />
          </mxGeometry>
        </mxCell>
        <mxCell id="fTSGLELFs4bgMWzawuB0-10" value="&lt;font face=&quot;Times New Roman&quot; style=&quot;font-size: 18px;&quot;&gt;&lt;b&gt;(a)&lt;/b&gt;&lt;/font&gt;" style="text;html=1;align=center;verticalAlign=middle;resizable=0;points=[];autosize=1;strokeColor=none;fillColor=none;" parent="1" vertex="1">
          <mxGeometry x="180" y="210" width="40" height="40" as="geometry" />
        </mxCell>
        <mxCell id="fTSGLELFs4bgMWzawuB0-11" value="&lt;font face=&quot;Times New Roman&quot; style=&quot;font-size: 18px;&quot;&gt;&lt;b&gt;(b)&lt;/b&gt;&lt;/font&gt;" style="text;html=1;align=center;verticalAlign=middle;resizable=0;points=[];autosize=1;strokeColor=none;fillColor=none;" parent="1" vertex="1">
          <mxGeometry x="565" y="210" width="50" height="40" as="geometry" />
        </mxCell>
        <mxCell id="fTSGLELFs4bgMWzawuB0-12" value="" style="group" parent="1" vertex="1" connectable="0">
          <mxGeometry x="600" y="240" width="160" height="165.86" as="geometry" />
        </mxCell>
        <mxCell id="fTSGLELFs4bgMWzawuB0-13" value="&lt;font face=&quot;Times New Roman&quot; style=&quot;font-size: 16px;&quot;&gt;&lt;b&gt;X&lt;sub&gt;1&lt;/sub&gt;&lt;/b&gt;&lt;/font&gt;" style="ellipse;whiteSpace=wrap;html=1;aspect=fixed;" parent="fTSGLELFs4bgMWzawuB0-12" vertex="1">
          <mxGeometry width="45.71428571428571" height="45.71428571428571" as="geometry" />
        </mxCell>
        <mxCell id="fTSGLELFs4bgMWzawuB0-14" value="&lt;font face=&quot;Times New Roman&quot; style=&quot;font-size: 16px;&quot;&gt;&lt;b&gt;X&lt;sub&gt;2&lt;/sub&gt;&lt;/b&gt;&lt;/font&gt;" style="ellipse;whiteSpace=wrap;html=1;aspect=fixed;" parent="fTSGLELFs4bgMWzawuB0-12" vertex="1">
          <mxGeometry y="109.87512624707101" width="45.71428571428571" height="45.71428571428571" as="geometry" />
        </mxCell>
        <mxCell id="fTSGLELFs4bgMWzawuB0-15" value="" style="endArrow=classic;html=1;rounded=0;entryX=0.5;entryY=0;entryDx=0;entryDy=0;exitX=0.5;exitY=1;exitDx=0;exitDy=0;" parent="fTSGLELFs4bgMWzawuB0-12" source="fTSGLELFs4bgMWzawuB0-13" target="fTSGLELFs4bgMWzawuB0-14" edge="1">
          <mxGeometry width="50" height="50" relative="1" as="geometry">
            <mxPoint x="91.42857142857142" y="48.83338944314267" as="sourcePoint" />
            <mxPoint x="148.57142857142856" y="-12.208347360785668" as="targetPoint" />
          </mxGeometry>
        </mxCell>
        <mxCell id="fTSGLELFs4bgMWzawuB0-16" value="&lt;font face=&quot;Times New Roman&quot; style=&quot;font-size: 16px;&quot;&gt;&lt;b&gt;X&lt;sub&gt;4&lt;/sub&gt;&lt;/b&gt;&lt;/font&gt;" style="ellipse;whiteSpace=wrap;html=1;aspect=fixed;" parent="fTSGLELFs4bgMWzawuB0-12" vertex="1">
          <mxGeometry x="114.28571428571428" width="45.71428571428571" height="45.71428571428571" as="geometry" />
        </mxCell>
        <mxCell id="fTSGLELFs4bgMWzawuB0-17" value="&lt;font face=&quot;Times New Roman&quot; style=&quot;font-size: 16px;&quot;&gt;&lt;b&gt;X&lt;sub&gt;3&lt;/sub&gt;&lt;/b&gt;&lt;/font&gt;" style="ellipse;whiteSpace=wrap;html=1;aspect=fixed;" parent="fTSGLELFs4bgMWzawuB0-12" vertex="1">
          <mxGeometry x="114.28571428571428" y="109.87512624707101" width="45.71428571428571" height="45.71428571428571" as="geometry" />
        </mxCell>
        <mxCell id="fTSGLELFs4bgMWzawuB0-18" value="" style="endArrow=classic;html=1;rounded=0;entryX=0.5;entryY=0;entryDx=0;entryDy=0;exitX=0.5;exitY=1;exitDx=0;exitDy=0;" parent="fTSGLELFs4bgMWzawuB0-12" source="fTSGLELFs4bgMWzawuB0-16" target="fTSGLELFs4bgMWzawuB0-17" edge="1">
          <mxGeometry width="50" height="50" relative="1" as="geometry">
            <mxPoint x="205.7142857142857" y="48.83338944314267" as="sourcePoint" />
            <mxPoint x="262.85714285714283" y="-12.208347360785668" as="targetPoint" />
          </mxGeometry>
        </mxCell>
        <mxCell id="fTSGLELFs4bgMWzawuB0-19" value="" style="endArrow=classic;html=1;exitX=1;exitY=0;exitDx=0;exitDy=0;entryX=0;entryY=0;entryDx=0;entryDy=0;curved=1;" parent="fTSGLELFs4bgMWzawuB0-12" source="fTSGLELFs4bgMWzawuB0-14" target="fTSGLELFs4bgMWzawuB0-17" edge="1">
          <mxGeometry width="50" height="50" relative="1" as="geometry">
            <mxPoint x="148.57142857142856" y="195.33355777257069" as="sourcePoint" />
            <mxPoint x="205.7142857142857" y="134.29182096864236" as="targetPoint" />
            <Array as="points">
              <mxPoint x="80" y="97.66677888628534" />
            </Array>
          </mxGeometry>
        </mxCell>
        <mxCell id="fTSGLELFs4bgMWzawuB0-20" value="" style="endArrow=classic;html=1;exitX=0;exitY=1;exitDx=0;exitDy=0;curved=1;entryX=1;entryY=1;entryDx=0;entryDy=0;" parent="fTSGLELFs4bgMWzawuB0-12" source="fTSGLELFs4bgMWzawuB0-17" target="fTSGLELFs4bgMWzawuB0-14" edge="1">
          <mxGeometry width="50" height="50" relative="1" as="geometry">
            <mxPoint x="127.67755928716451" y="146.50016832942802" as="sourcePoint" />
            <mxPoint x="45.71428571428571" y="146.50016832942802" as="targetPoint" />
            <Array as="points">
              <mxPoint x="86.69714285714286" y="165.86" />
            </Array>
          </mxGeometry>
        </mxCell>
        <mxCell id="SroPWxwJ57fRnOFav5CQ-1" value="&lt;font face=&quot;Times New Roman&quot; style=&quot;font-size: 16px;&quot;&gt;&lt;b&gt;X&lt;sub&gt;1&lt;/sub&gt;&lt;/b&gt;&lt;/font&gt;" style="ellipse;whiteSpace=wrap;html=1;aspect=fixed;" parent="1" vertex="1">
          <mxGeometry x="210" y="240" width="45.71428571428571" height="45.71428571428571" as="geometry" />
        </mxCell>
        <mxCell id="SroPWxwJ57fRnOFav5CQ-2" value="" style="endArrow=classic;html=1;rounded=0;exitX=1;exitY=0.5;exitDx=0;exitDy=0;entryX=0;entryY=0.5;entryDx=0;entryDy=0;" parent="1" source="SroPWxwJ57fRnOFav5CQ-1" target="fTSGLELFs4bgMWzawuB0-2" edge="1">
          <mxGeometry width="50" height="50" relative="1" as="geometry">
            <mxPoint x="390" y="340" as="sourcePoint" />
            <mxPoint x="440" y="290" as="targetPoint" />
          </mxGeometry>
        </mxCell>
        <mxCell id="h2kRVkZbGWIF0xeqDlL9-1" value="" style="group" parent="1" vertex="1" connectable="0">
          <mxGeometry x="320" y="445" width="160" height="165.86" as="geometry" />
        </mxCell>
        <mxCell id="h2kRVkZbGWIF0xeqDlL9-2" value="&lt;font face=&quot;Times New Roman&quot; style=&quot;font-size: 16px;&quot;&gt;&lt;b&gt;X&lt;sub&gt;2&lt;/sub&gt;&lt;/b&gt;&lt;/font&gt;" style="ellipse;whiteSpace=wrap;html=1;aspect=fixed;" parent="h2kRVkZbGWIF0xeqDlL9-1" vertex="1">
          <mxGeometry width="45.71428571428571" height="45.71428571428571" as="geometry" />
        </mxCell>
        <mxCell id="h2kRVkZbGWIF0xeqDlL9-3" value="&lt;font face=&quot;Times New Roman&quot; style=&quot;font-size: 16px;&quot;&gt;&lt;b&gt;X&lt;sub&gt;3&lt;/sub&gt;&lt;/b&gt;&lt;/font&gt;" style="ellipse;whiteSpace=wrap;html=1;aspect=fixed;" parent="h2kRVkZbGWIF0xeqDlL9-1" vertex="1">
          <mxGeometry y="109.87512624707101" width="45.71428571428571" height="45.71428571428571" as="geometry" />
        </mxCell>
        <mxCell id="h2kRVkZbGWIF0xeqDlL9-4" value="" style="endArrow=none;html=1;rounded=0;entryX=0.5;entryY=0;entryDx=0;entryDy=0;exitX=0.5;exitY=1;exitDx=0;exitDy=0;endFill=0;" parent="h2kRVkZbGWIF0xeqDlL9-1" source="h2kRVkZbGWIF0xeqDlL9-2" target="h2kRVkZbGWIF0xeqDlL9-3" edge="1">
          <mxGeometry width="50" height="50" relative="1" as="geometry">
            <mxPoint x="91.42857142857142" y="48.83338944314267" as="sourcePoint" />
            <mxPoint x="148.57142857142856" y="-12.208347360785668" as="targetPoint" />
          </mxGeometry>
        </mxCell>
        <mxCell id="h2kRVkZbGWIF0xeqDlL9-5" value="&lt;font face=&quot;Times New Roman&quot; style=&quot;font-size: 16px;&quot;&gt;&lt;b&gt;X&lt;sub&gt;5&lt;/sub&gt;&lt;/b&gt;&lt;/font&gt;" style="ellipse;whiteSpace=wrap;html=1;aspect=fixed;" parent="h2kRVkZbGWIF0xeqDlL9-1" vertex="1">
          <mxGeometry x="114.28571428571428" width="45.71428571428571" height="45.71428571428571" as="geometry" />
        </mxCell>
        <mxCell id="h2kRVkZbGWIF0xeqDlL9-6" value="&lt;font face=&quot;Times New Roman&quot; style=&quot;font-size: 16px;&quot;&gt;&lt;b&gt;X&lt;sub&gt;4&lt;/sub&gt;&lt;/b&gt;&lt;/font&gt;" style="ellipse;whiteSpace=wrap;html=1;aspect=fixed;" parent="h2kRVkZbGWIF0xeqDlL9-1" vertex="1">
          <mxGeometry x="114.28571428571428" y="109.87512624707101" width="45.71428571428571" height="45.71428571428571" as="geometry" />
        </mxCell>
        <mxCell id="h2kRVkZbGWIF0xeqDlL9-7" value="" style="endArrow=none;html=1;rounded=0;entryX=0.5;entryY=0;entryDx=0;entryDy=0;exitX=0.5;exitY=1;exitDx=0;exitDy=0;endFill=0;" parent="h2kRVkZbGWIF0xeqDlL9-1" source="h2kRVkZbGWIF0xeqDlL9-5" target="h2kRVkZbGWIF0xeqDlL9-6" edge="1">
          <mxGeometry width="50" height="50" relative="1" as="geometry">
            <mxPoint x="205.7142857142857" y="48.83338944314267" as="sourcePoint" />
            <mxPoint x="262.85714285714283" y="-12.208347360785668" as="targetPoint" />
          </mxGeometry>
        </mxCell>
        <mxCell id="h2kRVkZbGWIF0xeqDlL9-8" value="" style="endArrow=none;html=1;rounded=0;fontSize=16;exitX=0.963;exitY=0.722;exitDx=0;exitDy=0;entryX=0;entryY=0;entryDx=0;entryDy=0;exitPerimeter=0;endFill=0;" parent="h2kRVkZbGWIF0xeqDlL9-1" source="h2kRVkZbGWIF0xeqDlL9-2" target="h2kRVkZbGWIF0xeqDlL9-6" edge="1">
          <mxGeometry width="50" height="50" relative="1" as="geometry">
            <mxPoint x="240" y="130" as="sourcePoint" />
            <mxPoint x="290" y="80" as="targetPoint" />
          </mxGeometry>
        </mxCell>
        <mxCell id="h2kRVkZbGWIF0xeqDlL9-29" value="" style="endArrow=none;html=1;rounded=0;exitX=1;exitY=0.5;exitDx=0;exitDy=0;entryX=0;entryY=0.5;entryDx=0;entryDy=0;" parent="h2kRVkZbGWIF0xeqDlL9-1" source="h2kRVkZbGWIF0xeqDlL9-2" target="h2kRVkZbGWIF0xeqDlL9-5" edge="1">
          <mxGeometry width="50" height="50" relative="1" as="geometry">
            <mxPoint x="130" y="-5" as="sourcePoint" />
            <mxPoint x="180" y="-55" as="targetPoint" />
          </mxGeometry>
        </mxCell>
        <mxCell id="h2kRVkZbGWIF0xeqDlL9-9" value="&lt;font face=&quot;Times New Roman&quot; style=&quot;font-size: 18px;&quot;&gt;&lt;b&gt;(c)&lt;/b&gt;&lt;/font&gt;" style="text;html=1;align=center;verticalAlign=middle;resizable=0;points=[];autosize=1;strokeColor=none;fillColor=none;" parent="1" vertex="1">
          <mxGeometry x="180" y="415" width="40" height="40" as="geometry" />
        </mxCell>
        <mxCell id="h2kRVkZbGWIF0xeqDlL9-10" value="&lt;font face=&quot;Times New Roman&quot; style=&quot;font-size: 16px;&quot;&gt;&lt;b&gt;X&lt;sub&gt;1&lt;/sub&gt;&lt;/b&gt;&lt;/font&gt;" style="ellipse;whiteSpace=wrap;html=1;aspect=fixed;" parent="1" vertex="1">
          <mxGeometry x="210" y="445" width="45.71428571428571" height="45.71428571428571" as="geometry" />
        </mxCell>
        <mxCell id="h2kRVkZbGWIF0xeqDlL9-11" value="" style="endArrow=none;html=1;rounded=0;exitX=1;exitY=0.5;exitDx=0;exitDy=0;entryX=0;entryY=0.5;entryDx=0;entryDy=0;endFill=0;" parent="1" source="h2kRVkZbGWIF0xeqDlL9-10" target="h2kRVkZbGWIF0xeqDlL9-2" edge="1">
          <mxGeometry width="50" height="50" relative="1" as="geometry">
            <mxPoint x="390" y="545" as="sourcePoint" />
            <mxPoint x="440" y="495" as="targetPoint" />
          </mxGeometry>
        </mxCell>
        <mxCell id="h2kRVkZbGWIF0xeqDlL9-12" value="&lt;font face=&quot;Times New Roman&quot; style=&quot;font-size: 18px;&quot;&gt;&lt;b&gt;(d)&lt;/b&gt;&lt;/font&gt;" style="text;html=1;align=center;verticalAlign=middle;resizable=0;points=[];autosize=1;strokeColor=none;fillColor=none;" parent="1" vertex="1">
          <mxGeometry x="565" y="415" width="50" height="40" as="geometry" />
        </mxCell>
        <mxCell id="h2kRVkZbGWIF0xeqDlL9-13" value="" style="group" parent="1" vertex="1" connectable="0">
          <mxGeometry x="600" y="445" width="160" height="165.86" as="geometry" />
        </mxCell>
        <mxCell id="h2kRVkZbGWIF0xeqDlL9-14" value="&lt;font face=&quot;Times New Roman&quot; style=&quot;font-size: 16px;&quot;&gt;&lt;b&gt;X&lt;sub style=&quot;&quot;&gt;1&lt;/sub&gt;&lt;/b&gt;&lt;/font&gt;" style="ellipse;whiteSpace=wrap;html=1;aspect=fixed;" parent="h2kRVkZbGWIF0xeqDlL9-13" vertex="1">
          <mxGeometry width="45.71428571428571" height="45.71428571428571" as="geometry" />
        </mxCell>
        <mxCell id="h2kRVkZbGWIF0xeqDlL9-23" style="edgeStyle=orthogonalEdgeStyle;rounded=0;orthogonalLoop=1;jettySize=auto;html=1;exitX=1;exitY=0.5;exitDx=0;exitDy=0;entryX=0;entryY=0.5;entryDx=0;entryDy=0;endArrow=none;endFill=0;" parent="h2kRVkZbGWIF0xeqDlL9-13" source="h2kRVkZbGWIF0xeqDlL9-15" target="h2kRVkZbGWIF0xeqDlL9-18" edge="1">
          <mxGeometry relative="1" as="geometry" />
        </mxCell>
        <mxCell id="h2kRVkZbGWIF0xeqDlL9-15" value="&lt;font face=&quot;Times New Roman&quot; style=&quot;font-size: 16px;&quot;&gt;&lt;b&gt;X&lt;sub&gt;2&lt;/sub&gt;&lt;/b&gt;&lt;/font&gt;" style="ellipse;whiteSpace=wrap;html=1;aspect=fixed;" parent="h2kRVkZbGWIF0xeqDlL9-13" vertex="1">
          <mxGeometry y="109.87512624707101" width="45.71428571428571" height="45.71428571428571" as="geometry" />
        </mxCell>
        <mxCell id="h2kRVkZbGWIF0xeqDlL9-16" value="" style="endArrow=none;html=1;rounded=0;entryX=0.5;entryY=0;entryDx=0;entryDy=0;exitX=0.5;exitY=1;exitDx=0;exitDy=0;endFill=0;" parent="h2kRVkZbGWIF0xeqDlL9-13" source="h2kRVkZbGWIF0xeqDlL9-14" target="h2kRVkZbGWIF0xeqDlL9-15" edge="1">
          <mxGeometry width="50" height="50" relative="1" as="geometry">
            <mxPoint x="91.42857142857142" y="48.83338944314267" as="sourcePoint" />
            <mxPoint x="148.57142857142856" y="-12.208347360785668" as="targetPoint" />
          </mxGeometry>
        </mxCell>
        <mxCell id="h2kRVkZbGWIF0xeqDlL9-17" value="&lt;font face=&quot;Times New Roman&quot; style=&quot;font-size: 16px;&quot;&gt;&lt;b&gt;X&lt;sub&gt;4&lt;/sub&gt;&lt;/b&gt;&lt;/font&gt;" style="ellipse;whiteSpace=wrap;html=1;aspect=fixed;" parent="h2kRVkZbGWIF0xeqDlL9-13" vertex="1">
          <mxGeometry x="114.28571428571428" width="45.71428571428571" height="45.71428571428571" as="geometry" />
        </mxCell>
        <mxCell id="h2kRVkZbGWIF0xeqDlL9-18" value="&lt;font face=&quot;Times New Roman&quot; style=&quot;font-size: 16px;&quot;&gt;&lt;b&gt;X&lt;sub&gt;3&lt;/sub&gt;&lt;/b&gt;&lt;/font&gt;" style="ellipse;whiteSpace=wrap;html=1;aspect=fixed;" parent="h2kRVkZbGWIF0xeqDlL9-13" vertex="1">
          <mxGeometry x="114.28571428571428" y="109.87512624707101" width="45.71428571428571" height="45.71428571428571" as="geometry" />
        </mxCell>
        <mxCell id="h2kRVkZbGWIF0xeqDlL9-19" value="" style="endArrow=none;html=1;rounded=0;entryX=0.5;entryY=0;entryDx=0;entryDy=0;exitX=0.5;exitY=1;exitDx=0;exitDy=0;endFill=0;" parent="h2kRVkZbGWIF0xeqDlL9-13" source="h2kRVkZbGWIF0xeqDlL9-17" target="h2kRVkZbGWIF0xeqDlL9-18" edge="1">
          <mxGeometry width="50" height="50" relative="1" as="geometry">
            <mxPoint x="205.7142857142857" y="48.83338944314267" as="sourcePoint" />
            <mxPoint x="262.85714285714283" y="-12.208347360785668" as="targetPoint" />
          </mxGeometry>
        </mxCell>
        <mxCell id="h2kRVkZbGWIF0xeqDlL9-25" value="" style="endArrow=none;html=1;rounded=0;entryX=1;entryY=1;entryDx=0;entryDy=0;exitX=0;exitY=0;exitDx=0;exitDy=0;" parent="h2kRVkZbGWIF0xeqDlL9-13" source="h2kRVkZbGWIF0xeqDlL9-18" target="h2kRVkZbGWIF0xeqDlL9-14" edge="1">
          <mxGeometry width="50" height="50" relative="1" as="geometry">
            <mxPoint x="-150" y="-5" as="sourcePoint" />
            <mxPoint x="-100" y="-55" as="targetPoint" />
          </mxGeometry>
        </mxCell>
        <mxCell id="h2kRVkZbGWIF0xeqDlL9-26" value="" style="endArrow=none;html=1;rounded=0;entryX=0;entryY=1;entryDx=0;entryDy=0;exitX=1;exitY=0;exitDx=0;exitDy=0;" parent="h2kRVkZbGWIF0xeqDlL9-13" source="h2kRVkZbGWIF0xeqDlL9-15" target="h2kRVkZbGWIF0xeqDlL9-17" edge="1">
          <mxGeometry width="50" height="50" relative="1" as="geometry">
            <mxPoint x="130.9804164300274" y="126.56982839138414" as="sourcePoint" />
            <mxPoint x="49.01958356995874" y="49.01958356995874" as="targetPoint" />
          </mxGeometry>
        </mxCell>
      </root>
    </mxGraphModel>
  </diagram>
</mxfile>
